<?xml version="1.0" encoding="utf-8"?>
<svg viewBox="0 0 2100.91 1670.79" xmlns="http://www.w3.org/2000/svg">
  <path
    d="M1300.92 511.88c96.6 158.77 329.47 412.57 552.33 311.85s304.18-484.12 207.54-642.88-407.48-236.44-630.36-135.69-226.17 308-129.52 466.72"
    fill="#efefff" />
  <path
    d="M 1078.362 859.464 C 1085.882 878.894 1105.472 895.714 1126.792 887.704 C 1148.112 879.694 1155.172 853.394 1147.642 833.974 C 1140.112 814.554 1121.302 810.654 1099.972 818.654 C 1078.642 826.654 1070.832 840.034 1078.362 859.464 Z"
    style="fill: rgba(157, 126, 240, 0.71);" />
  <path
    d="M 1256.917 470.443 C 1261.547 482.613 1273.607 493.153 1286.747 488.143 C 1299.887 483.133 1304.227 466.643 1299.587 454.473 C 1294.947 442.303 1283.367 439.853 1270.227 444.873 C 1257.087 449.893 1252.287 458.273 1256.917 470.443 Z"
    style="mix-blend-mode:multiply" fill="#74d9d7" />
  <path
    d="M 1379.741 854.195 C 1382.811 853.775 1385.911 851.535 1385.451 848.195 C 1384.991 844.855 1381.401 842.985 1378.321 843.405 C 1375.241 843.825 1374.061 846.405 1374.521 849.705 C 1374.981 853.005 1376.661 854.575 1379.741 854.195 Z M 567.371 597.035 C 570.681 605.585 579.301 612.985 588.681 609.465 C 598.061 605.945 601.171 594.365 597.851 585.825 C 594.531 577.285 586.261 575.565 576.851 579.085 C 567.441 582.605 564.061 588.495 567.371 597.035 Z"
    style="fill: rgba(255, 236, 95, 0.73);" />
  <path
    d="M591.27 1103.51c-34.71-36.79-80.54-61.2-129.75-75.52-41.6-12.12-85.62-17-127.4-16.09-51.59 1.1-93.12 19.62-135.12 47.75-37.81 25.34-70.84 57.18-98.67 93-40.34 52-75.6 114.14-91.7 178-41.76 165.78 74.34 286.11 227.12 325.35 117.46 30.18 231 17.2 323.1-69.13 71.84-67.3 103.76-162.39 107-258.56 2.71-81-18.73-165.78-74.5-224.86"
    fill="#f7f7ff" />
  <path
    d="M 239.973 1027.142 C 247.493 1046.572 267.083 1063.392 288.403 1055.382 C 309.723 1047.372 316.783 1021.072 309.253 1001.652 C 301.723 982.232 282.913 978.332 261.583 986.332 C 240.253 994.332 232.443 1007.712 239.973 1027.142 Z"
    style="fill: rgba(0, 175, 239, 0.53);" />
</svg>